<svg width="108" height="51" viewBox="0 0 108 51" fill="none" xmlns="http://www.w3.org/2000/svg">
<path d="M61.6104 34.9468C61.6438 34.9468 61.691 34.9635 61.7521 34.9968C61.8132 35.0301 61.8438 35.1107 61.8438 35.2385V35.8885C61.8438 36.0163 61.8132 36.0968 61.7521 36.1301C61.691 36.1635 61.6438 36.1801 61.6104 36.1801H56.8187C56.7854 36.1801 56.7382 36.1663 56.6771 36.1385C56.6215 36.1051 56.5938 36.0246 56.5938 35.8968V35.2468C56.5938 35.1135 56.6215 35.0301 56.6771 34.9968C56.7382 34.9635 56.7854 34.9468 56.8187 34.9468H61.6104ZM57.8438 39.8218C57.8438 40.1051 57.916 40.3024 58.0604 40.4135C58.2104 40.5246 58.4132 40.5801 58.6688 40.5801H61.6021C61.691 40.5801 61.7521 40.6079 61.7854 40.6635C61.8243 40.719 61.8438 40.7857 61.8438 40.8635V41.5301C61.8438 41.6079 61.8243 41.6746 61.7854 41.7301C61.7521 41.7857 61.691 41.8135 61.6021 41.8135H58.6438C58.2438 41.8135 57.9104 41.7579 57.6438 41.6468C57.3826 41.5301 57.1743 41.3663 57.0188 41.1551C56.8632 40.944 56.7521 40.6913 56.6854 40.3968C56.6243 40.0968 56.5938 39.7635 56.5938 39.3968V38.2968C56.5938 38.2301 56.6049 38.1635 56.6271 38.0968C56.6493 38.0246 56.6854 37.9635 56.7354 37.9135C56.791 37.8579 56.8604 37.8135 56.9438 37.7801C57.0326 37.7468 57.141 37.7301 57.2688 37.7301H61.5688C61.6521 37.7301 61.7104 37.7579 61.7438 37.8135C61.7826 37.869 61.8021 37.9357 61.8021 38.0135V38.6718C61.8021 38.7496 61.7826 38.819 61.7438 38.8801C61.7104 38.9357 61.6521 38.9635 61.5688 38.9635H57.8438V39.8218ZM68.1661 41.4468C68.205 41.5024 68.2245 41.5524 68.2245 41.5968C68.2245 41.7413 68.1606 41.8135 68.0328 41.8135H67.0661C66.9773 41.8135 66.9161 41.8024 66.8828 41.7801C66.855 41.7524 66.8189 41.7051 66.7745 41.6385L65.0911 39.2551L63.3995 41.6468C63.355 41.7079 63.3134 41.7524 63.2745 41.7801C63.2411 41.8024 63.1856 41.8135 63.1078 41.8135H62.1911C62.0689 41.8135 62.0078 41.7468 62.0078 41.6135C62.0078 41.5579 62.0273 41.5024 62.0661 41.4468L64.3578 38.2051L62.2911 35.3135C62.2578 35.2635 62.2411 35.2079 62.2411 35.1468C62.2411 35.0135 62.3023 34.9468 62.4245 34.9468H63.3911C63.4634 34.9468 63.5189 34.9607 63.5578 34.9885C63.6023 35.0107 63.6439 35.0524 63.6828 35.1135L65.1578 37.2468L66.7245 35.1135C66.7689 35.0524 66.8078 35.0107 66.8411 34.9885C66.88 34.9607 66.9384 34.9468 67.0161 34.9468H67.9328C68.0606 34.9468 68.1245 35.0135 68.1245 35.1468C68.1245 35.2135 68.105 35.269 68.0661 35.3135L65.9328 38.2551L68.1661 41.4468ZM72.6702 34.9468C72.9868 34.9468 73.248 34.9996 73.4535 35.1051C73.6591 35.2051 73.8202 35.3468 73.9368 35.5301C74.0591 35.7079 74.1424 35.919 74.1868 36.1635C74.2368 36.4024 74.2618 36.6607 74.2618 36.9385C74.2618 37.2163 74.2368 37.4801 74.1868 37.7301C74.1424 37.9746 74.0591 38.1885 73.9368 38.3718C73.8202 38.5551 73.6591 38.7024 73.4535 38.8135C73.248 38.919 72.9868 38.9718 72.6702 38.9718H69.8202V41.5301C69.8202 41.6079 69.8007 41.6774 69.7618 41.7385C69.7285 41.794 69.6702 41.8218 69.5868 41.8218H68.8202C68.7368 41.8218 68.6757 41.794 68.6368 41.7385C68.6035 41.6774 68.5868 41.6079 68.5868 41.5301V38.0301C68.5868 37.9524 68.6035 37.8857 68.6368 37.8301C68.6757 37.7746 68.7368 37.7468 68.8202 37.7468H72.4535C72.5813 37.7468 72.6813 37.7274 72.7535 37.6885C72.8313 37.644 72.8896 37.5857 72.9285 37.5135C72.9674 37.4413 72.9924 37.3579 73.0035 37.2635C73.0202 37.169 73.0285 37.069 73.0285 36.9635C73.0285 36.8579 73.0202 36.7579 73.0035 36.6635C72.9924 36.569 72.9674 36.4857 72.9285 36.4135C72.8896 36.3413 72.8313 36.2857 72.7535 36.2468C72.6813 36.2024 72.5813 36.1801 72.4535 36.1801H68.8202C68.7368 36.1801 68.6757 36.1524 68.6368 36.0968C68.6035 36.0413 68.5868 35.9746 68.5868 35.8968C68.5868 35.8357 68.5813 35.7524 68.5702 35.6468C68.5646 35.5413 68.5646 35.4357 68.5702 35.3301C68.5757 35.2246 68.5952 35.1357 68.6285 35.0635C68.6674 34.9857 68.7313 34.9468 68.8202 34.9468H72.6702ZM79.7745 34.9468C79.8078 34.9468 79.855 34.9635 79.9161 34.9968C79.9773 35.0301 80.0078 35.1107 80.0078 35.2385V35.8885C80.0078 36.0163 79.9773 36.0968 79.9161 36.1301C79.855 36.1635 79.8078 36.1801 79.7745 36.1801H74.9828C74.9495 36.1801 74.9023 36.1663 74.8411 36.1385C74.7856 36.1051 74.7578 36.0246 74.7578 35.8968V35.2468C74.7578 35.1135 74.7856 35.0301 74.8411 34.9968C74.9023 34.9635 74.9495 34.9468 74.9828 34.9468H79.7745ZM76.0078 39.8218C76.0078 40.1051 76.08 40.3024 76.2245 40.4135C76.3745 40.5246 76.5773 40.5801 76.8328 40.5801H79.7661C79.855 40.5801 79.9161 40.6079 79.9495 40.6635C79.9884 40.719 80.0078 40.7857 80.0078 40.8635V41.5301C80.0078 41.6079 79.9884 41.6746 79.9495 41.7301C79.9161 41.7857 79.855 41.8135 79.7661 41.8135H76.8078C76.4078 41.8135 76.0745 41.7579 75.8078 41.6468C75.5467 41.5301 75.3384 41.3663 75.1828 41.1551C75.0273 40.944 74.9161 40.6913 74.8495 40.3968C74.7884 40.0968 74.7578 39.7635 74.7578 39.3968V38.2968C74.7578 38.2301 74.7689 38.1635 74.7911 38.0968C74.8134 38.0246 74.8495 37.9635 74.8995 37.9135C74.955 37.8579 75.0245 37.8135 75.1078 37.7801C75.1967 37.7468 75.305 37.7301 75.4328 37.7301H79.7328C79.8161 37.7301 79.8745 37.7579 79.9078 37.8135C79.9467 37.869 79.9661 37.9357 79.9661 38.0135V38.6718C79.9661 38.7496 79.9467 38.819 79.9078 38.8801C79.8745 38.9357 79.8161 38.9635 79.7328 38.9635H76.0078V39.8218ZM84.8885 38.9551C84.9219 39.0051 84.9802 39.1024 85.0635 39.2468C85.1469 39.3857 85.2441 39.5496 85.3552 39.7385C85.4663 39.9218 85.5802 40.1163 85.6969 40.3218C85.8191 40.5218 85.9302 40.7135 86.0302 40.8968C86.1358 41.0746 86.2191 41.2274 86.2802 41.3551C86.3469 41.4774 86.3802 41.5551 86.3802 41.5885C86.3802 41.6496 86.3663 41.7024 86.3385 41.7468C86.3108 41.7913 86.2608 41.8135 86.1885 41.8135H85.2719C85.2052 41.8135 85.1524 41.8024 85.1135 41.7801C85.0747 41.7524 85.0385 41.7079 85.0052 41.6468L83.4969 38.9801H81.7385V41.5218C81.7385 41.5996 81.7191 41.669 81.6802 41.7301C81.6469 41.7857 81.5885 41.8135 81.5052 41.8135H80.7469C80.6635 41.8135 80.6024 41.7857 80.5635 41.7301C80.5247 41.669 80.5052 41.5996 80.5052 41.5218V38.0301C80.5052 37.9524 80.5219 37.8857 80.5552 37.8301C80.5941 37.7746 80.658 37.7468 80.7469 37.7468H84.3719C84.4997 37.7468 84.5997 37.7274 84.6719 37.6885C84.7497 37.644 84.808 37.5857 84.8469 37.5135C84.8858 37.4413 84.9108 37.3579 84.9219 37.2635C84.9385 37.169 84.9469 37.069 84.9469 36.9635C84.9469 36.8579 84.9385 36.7579 84.9219 36.6635C84.9108 36.569 84.8858 36.4857 84.8469 36.4135C84.808 36.3413 84.7497 36.2857 84.6719 36.2468C84.5997 36.2024 84.4997 36.1801 84.3719 36.1801H80.7469C80.658 36.1801 80.5941 36.1524 80.5552 36.0968C80.5219 36.0413 80.5052 35.9746 80.5052 35.8968V35.2385C80.5052 35.1607 80.5219 35.094 80.5552 35.0385C80.5941 34.9774 80.658 34.9468 80.7469 34.9468H84.5885C84.9052 34.9468 85.1663 34.9996 85.3719 35.1051C85.5774 35.2107 85.7385 35.3551 85.8552 35.5385C85.9774 35.7218 86.0635 35.9357 86.1135 36.1801C86.1635 36.4246 86.1885 36.6857 86.1885 36.9635C86.1885 37.1968 86.1691 37.4274 86.1302 37.6551C86.0969 37.8774 86.0302 38.0801 85.9302 38.2635C85.8358 38.4413 85.7052 38.594 85.5385 38.7218C85.3719 38.844 85.1552 38.9218 84.8885 38.9551ZM92.3859 34.9468C92.4248 34.9468 92.4748 34.9635 92.5359 34.9968C92.597 35.0246 92.6276 35.1024 92.6276 35.2301V35.8801C92.6276 35.9468 92.6165 36.0024 92.5943 36.0468C92.5776 36.0857 92.5554 36.1163 92.5276 36.1385C92.5054 36.1551 92.4804 36.1663 92.4526 36.1718C92.4248 36.1774 92.4026 36.1801 92.3859 36.1801H90.2443V41.5301C90.2443 41.6579 90.2137 41.7385 90.1526 41.7718C90.097 41.7996 90.0498 41.8135 90.0109 41.8135H89.2443C89.2109 41.8135 89.1637 41.7996 89.1026 41.7718C89.0415 41.7385 89.0109 41.6579 89.0109 41.5301V36.1801H86.8693C86.8526 36.1801 86.8304 36.1774 86.8026 36.1718C86.7748 36.1663 86.747 36.1551 86.7193 36.1385C86.697 36.1163 86.6748 36.0857 86.6526 36.0468C86.6359 36.0024 86.6276 35.9468 86.6276 35.8801V35.2301C86.6276 35.1024 86.6582 35.0246 86.7193 34.9968C86.7804 34.9635 86.8304 34.9468 86.8693 34.9468H92.3859ZM94.3322 37.4635C94.3322 37.5413 94.3544 37.6024 94.3988 37.6468C94.4488 37.6913 94.5044 37.7135 94.5655 37.7135H97.0655C97.3211 37.7135 97.5322 37.7635 97.6988 37.8635C97.8711 37.9579 98.0072 38.0857 98.1072 38.2468C98.2072 38.4079 98.2766 38.594 98.3155 38.8051C98.3599 39.0107 98.3822 39.2218 98.3822 39.4385V40.1718C98.3822 40.3885 98.3572 40.5968 98.3072 40.7968C98.2627 40.9968 98.1877 41.1718 98.0822 41.3218C97.9766 41.4718 97.8377 41.5913 97.6655 41.6801C97.4988 41.769 97.2933 41.8135 97.0488 41.8135H93.2905C93.2016 41.8135 93.1377 41.7857 93.0988 41.7301C93.0655 41.6746 93.0488 41.6079 93.0488 41.5301V40.8635C93.0488 40.7857 93.0655 40.719 93.0988 40.6635C93.1377 40.6079 93.2016 40.5801 93.2905 40.5801H96.8488C96.9822 40.5801 97.0655 40.5329 97.0988 40.4385C97.1322 40.3385 97.1488 40.2329 97.1488 40.1218V39.4051C97.1488 39.2996 97.1322 39.1968 97.0988 39.0968C97.0655 38.9968 96.9849 38.9468 96.8572 38.9468H94.3572C93.8961 38.9468 93.5627 38.8163 93.3572 38.5551C93.1572 38.294 93.0572 37.9301 93.0572 37.4635V36.3885C93.0572 36.2218 93.0766 36.0524 93.1155 35.8801C93.1544 35.7079 93.2211 35.5551 93.3155 35.4218C93.4155 35.2829 93.5488 35.169 93.7155 35.0801C93.8877 34.9913 94.1072 34.9468 94.3738 34.9468H97.9655C98.0488 34.9468 98.1072 34.9746 98.1405 35.0301C98.1794 35.0857 98.1988 35.1524 98.1988 35.2301V35.8968C98.1988 35.9746 98.1794 36.0413 98.1405 36.0968C98.1072 36.1524 98.0488 36.1801 97.9655 36.1801H94.5738C94.5183 36.1801 94.4627 36.1996 94.4072 36.2385C94.3572 36.2774 94.3322 36.3274 94.3322 36.3885V37.4635Z" fill="#222222"/>
<path d="M6.78775 23.8015C5.40375 23.8015 4.33975 23.5135 3.59575 22.9375C2.85975 22.3535 2.41975 21.4495 2.27575 20.2255C2.25175 19.9295 2.31575 19.7055 2.46775 19.5535C2.62775 19.3935 2.85175 19.3135 3.13975 19.3135C3.42775 19.3135 3.63975 19.3855 3.77575 19.5295C3.91975 19.6735 4.01175 19.8895 4.05175 20.1775C4.14775 20.8815 4.39975 21.3695 4.80775 21.6415C5.22375 21.9055 5.88375 22.0375 6.78775 22.0375H10.2438C11.3158 22.0375 12.0478 21.8415 12.4398 21.4495C12.8398 21.0495 13.0398 20.3255 13.0398 19.2775C13.0398 18.2135 12.8358 17.4815 12.4278 17.0815C12.0278 16.6735 11.2998 16.4695 10.2438 16.4695H7.17175C5.69175 16.4695 4.59575 16.1135 3.88375 15.4015C3.17975 14.6895 2.82775 13.5975 2.82775 12.1255C2.82775 10.6535 3.17575 9.56548 3.87175 8.86148C4.57575 8.15748 5.66775 7.80548 7.14775 7.80548H10.1718C11.4678 7.80548 12.4638 8.08148 13.1598 8.63348C13.8638 9.17748 14.2878 10.0215 14.4318 11.1655C14.4638 11.4615 14.3998 11.6895 14.2398 11.8495C14.0878 12.0015 13.8638 12.0775 13.5677 12.0775C13.2878 12.0775 13.0758 12.0055 12.9318 11.8615C12.7878 11.7095 12.6998 11.4935 12.6678 11.2135C12.5718 10.5975 12.3318 10.1695 11.9478 9.92948C11.5718 9.68948 10.9798 9.56948 10.1718 9.56948H7.14775C6.15575 9.56948 5.47975 9.75348 5.11975 10.1215C4.76775 10.4815 4.59175 11.1495 4.59175 12.1255C4.59175 13.1015 4.77175 13.7775 5.13175 14.1535C5.49975 14.5215 6.17975 14.7055 7.17175 14.7055H10.2438C11.7958 14.7055 12.9438 15.0775 13.6878 15.8215C14.4318 16.5655 14.8038 17.7175 14.8038 19.2775C14.8038 20.8295 14.4318 21.9735 13.6878 22.7095C12.9438 23.4375 11.7958 23.8015 10.2438 23.8015H6.78775ZM28.8946 28.6135C28.3026 28.6135 28.0066 28.3175 28.0066 27.7255V23.8135H23.2306C21.6706 23.8135 20.5146 23.4415 19.7626 22.6975C19.0186 21.9455 18.6466 20.7895 18.6466 19.2295V16.4935C18.6466 14.9335 19.0186 13.7815 19.7626 13.0375C20.5146 12.2935 21.6706 11.9215 23.2306 11.9215H24.1426C25.0946 11.9215 25.8866 12.0495 26.5186 12.3055C27.1586 12.5535 27.6546 12.9135 28.0066 13.3855V12.7975C28.0066 12.2135 28.3026 11.9215 28.8946 11.9215C29.4786 11.9215 29.7706 12.2135 29.7706 12.7975V27.7255C29.7706 28.3175 29.4786 28.6135 28.8946 28.6135ZM23.2306 22.0495H28.0066V15.5935C28.0066 14.9455 27.6426 14.4655 26.9146 14.1535C26.1866 13.8415 25.2626 13.6855 24.1426 13.6855H23.2306C22.1506 13.6855 21.4106 13.8855 21.0106 14.2855C20.6106 14.6775 20.4106 15.4135 20.4106 16.4935V19.2295C20.4106 20.3095 20.6106 21.0495 21.0106 21.4495C21.4106 21.8495 22.1506 22.0495 23.2306 22.0495ZM44.1409 11.9215C44.7329 11.9215 45.0289 12.2135 45.0289 12.7975V22.9255C45.0289 23.5175 44.7329 23.8135 44.1409 23.8135C43.5569 23.8135 43.2649 23.5175 43.2649 22.9255V22.2895C42.4409 23.3055 41.1489 23.8135 39.3889 23.8135H38.7169C37.1569 23.8135 36.0049 23.4415 35.2609 22.6975C34.5169 21.9455 34.1449 20.7895 34.1449 19.2295V12.7975C34.1449 12.2135 34.4369 11.9215 35.0209 11.9215C35.6129 11.9215 35.9089 12.2135 35.9089 12.7975V19.2295C35.9089 20.3095 36.1089 21.0495 36.5089 21.4495C36.9169 21.8495 37.6529 22.0495 38.7169 22.0495H39.3889C40.4449 22.0495 41.3289 21.9095 42.0409 21.6295C42.7529 21.3415 43.1609 20.9055 43.2649 20.3215V12.7975C43.2649 12.2135 43.5569 11.9215 44.1409 11.9215ZM53.4657 23.8135C52.1537 23.8135 51.1817 23.4975 50.5497 22.8655C49.9177 22.2335 49.6017 21.2615 49.6017 19.9495C49.6017 18.6375 49.9137 17.6655 50.5377 17.0335C51.1697 16.4015 52.1457 16.0855 53.4657 16.0855H58.6617C58.6297 15.1735 58.4057 14.5455 57.9897 14.2015C57.5737 13.8575 56.8657 13.6855 55.8657 13.6855H54.4737C53.6017 13.6855 52.9537 13.7575 52.5297 13.9015C52.1137 14.0455 51.8337 14.2975 51.6897 14.6575C51.5777 14.9455 51.4537 15.1495 51.3177 15.2695C51.1897 15.3815 50.9897 15.4375 50.7177 15.4375C50.4217 15.4375 50.1897 15.3575 50.0217 15.1975C49.8617 15.0295 49.8137 14.8095 49.8777 14.5375C50.0697 13.6335 50.5417 12.9735 51.2937 12.5575C52.0457 12.1335 53.1057 11.9215 54.4737 11.9215H55.8657C57.4257 11.9215 58.5777 12.2935 59.3217 13.0375C60.0657 13.7815 60.4377 14.9335 60.4377 16.4935V22.9255C60.4377 23.5175 60.1457 23.8135 59.5617 23.8135C58.9697 23.8135 58.6737 23.5175 58.6737 22.9255V22.1695C57.8497 23.2655 56.5617 23.8135 54.8097 23.8135H53.4657ZM53.4657 22.0495H54.8097C55.4577 22.0495 56.0537 21.9855 56.5977 21.8575C57.1417 21.7295 57.5977 21.5055 57.9657 21.1855C58.3337 20.8655 58.5697 20.4175 58.6737 19.8415V17.8495H53.4657C52.6417 17.8495 52.0857 17.9975 51.7977 18.2935C51.5097 18.5815 51.3657 19.1335 51.3657 19.9495C51.3657 20.7735 51.5097 21.3295 51.7977 21.6175C52.0857 21.9055 52.6417 22.0495 53.4657 22.0495ZM67.7652 23.8015C66.7572 23.8015 65.9692 23.5935 65.4012 23.1775C64.8332 22.7535 64.4772 22.1175 64.3332 21.2695C64.2852 20.9815 64.3412 20.7535 64.5012 20.5855C64.6692 20.4175 64.9012 20.3335 65.1972 20.3335C65.4772 20.3335 65.6812 20.4055 65.8092 20.5495C65.9452 20.6935 66.0532 20.9095 66.1332 21.1975C66.2212 21.5255 66.3892 21.7495 66.6372 21.8695C66.8852 21.9815 67.2612 22.0375 67.7652 22.0375H71.7012C72.3652 22.0375 72.8132 21.9255 73.0452 21.7015C73.2852 21.4695 73.4052 21.0135 73.4052 20.3335C73.4052 19.6535 73.2852 19.1975 73.0452 18.9655C72.8132 18.7335 72.3652 18.6175 71.7012 18.6175H67.8252C66.7132 18.6175 65.8772 18.3415 65.3172 17.7895C64.7572 17.2295 64.4772 16.3935 64.4772 15.2815C64.4772 14.1455 64.7492 13.3015 65.2932 12.7495C65.8452 12.1895 66.6892 11.9095 67.8252 11.9095H71.5812C73.4372 11.9095 74.5132 12.7055 74.8092 14.2975C74.8572 14.5935 74.7972 14.8215 74.6292 14.9815C74.4692 15.1415 74.2412 15.2215 73.9452 15.2215C73.6732 15.2215 73.4692 15.1495 73.3332 15.0055C73.1972 14.8615 73.0932 14.6575 73.0212 14.3935C72.9412 14.1135 72.7892 13.9255 72.5652 13.8295C72.3492 13.7255 72.0212 13.6735 71.5812 13.6735H67.8252C67.1852 13.6735 66.7612 13.7775 66.5532 13.9855C66.3452 14.1935 66.2412 14.6255 66.2412 15.2815C66.2412 15.8895 66.3492 16.3055 66.5652 16.5295C66.7892 16.7455 67.2092 16.8535 67.8252 16.8535H71.7012C72.8692 16.8535 73.7372 17.1415 74.3052 17.7175C74.8812 18.2935 75.1692 19.1655 75.1692 20.3335C75.1692 21.5015 74.8812 22.3735 74.3052 22.9495C73.7372 23.5175 72.8692 23.8015 71.7012 23.8015H67.7652ZM80.1672 23.8135C79.5752 23.8135 79.2792 23.5175 79.2792 22.9255V7.87748C79.2792 7.29348 79.5752 7.00148 80.1672 7.00148C80.7512 7.00148 81.0432 7.29348 81.0432 7.87748V13.4455C81.8592 12.4295 83.1512 11.9215 84.9192 11.9215H85.5912C87.1512 11.9215 88.3032 12.2935 89.0472 13.0375C89.7912 13.7815 90.1632 14.9335 90.1632 16.4935V22.9255C90.1632 23.5175 89.8712 23.8135 89.2872 23.8135C88.6952 23.8135 88.3992 23.5175 88.3992 22.9255V16.4935C88.3992 15.4135 88.1952 14.6775 87.7872 14.2855C87.3872 13.8855 86.6552 13.6855 85.5912 13.6855H84.9192C83.8632 13.6855 82.9792 13.8255 82.2672 14.1055C81.5552 14.3775 81.1472 14.8095 81.0432 15.4015V22.9255C81.0432 23.5175 80.7512 23.8135 80.1672 23.8135Z" fill="#86153D"/>
</svg>
