<svg width="91" height="50" viewBox="0 0 91 50" fill="none" xmlns="http://www.w3.org/2000/svg">
<path d="M44.421 32.9095C44.4543 32.9095 44.5015 32.9261 44.5626 32.9595C44.6237 32.9928 44.6543 33.0733 44.6543 33.2011V33.8511C44.6543 33.9789 44.6237 34.0595 44.5626 34.0928C44.5015 34.1261 44.4543 34.1428 44.421 34.1428H39.6293C39.596 34.1428 39.5487 34.1289 39.4876 34.1011C39.4321 34.0678 39.4043 33.9872 39.4043 33.8595V33.2095C39.4043 33.0761 39.4321 32.9928 39.4876 32.9595C39.5487 32.9261 39.596 32.9095 39.6293 32.9095H44.421ZM40.6543 37.7845C40.6543 38.0678 40.7265 38.265 40.871 38.3761C41.021 38.4872 41.2237 38.5428 41.4793 38.5428H44.4126C44.5015 38.5428 44.5626 38.5706 44.596 38.6261C44.6349 38.6817 44.6543 38.7483 44.6543 38.8261V39.4928C44.6543 39.5706 44.6349 39.6372 44.596 39.6928C44.5626 39.7483 44.5015 39.7761 44.4126 39.7761H41.4543C41.0543 39.7761 40.721 39.7206 40.4543 39.6095C40.1932 39.4928 39.9849 39.3289 39.8293 39.1178C39.6737 38.9067 39.5626 38.6539 39.496 38.3595C39.4349 38.0595 39.4043 37.7261 39.4043 37.3595V36.2595C39.4043 36.1928 39.4154 36.1261 39.4376 36.0595C39.4599 35.9872 39.496 35.9261 39.546 35.8761C39.6015 35.8206 39.671 35.7761 39.7543 35.7428C39.8432 35.7095 39.9515 35.6928 40.0793 35.6928H44.3793C44.4626 35.6928 44.521 35.7206 44.5543 35.7761C44.5932 35.8317 44.6126 35.8983 44.6126 35.9761V36.6345C44.6126 36.7122 44.5932 36.7817 44.5543 36.8428C44.521 36.8983 44.4626 36.9261 44.3793 36.9261H40.6543V37.7845ZM50.9767 39.4095C51.0156 39.465 51.035 39.515 51.035 39.5595C51.035 39.7039 50.9711 39.7761 50.8434 39.7761H49.8767C49.7878 39.7761 49.7267 39.765 49.6934 39.7428C49.6656 39.715 49.6295 39.6678 49.585 39.6011L47.9017 37.2178L46.21 39.6095C46.1656 39.6706 46.1239 39.715 46.085 39.7428C46.0517 39.765 45.9961 39.7761 45.9184 39.7761H45.0017C44.8795 39.7761 44.8184 39.7095 44.8184 39.5761C44.8184 39.5206 44.8378 39.465 44.8767 39.4095L47.1684 36.1678L45.1017 33.2761C45.0684 33.2261 45.0517 33.1706 45.0517 33.1095C45.0517 32.9761 45.1128 32.9095 45.235 32.9095H46.2017C46.2739 32.9095 46.3295 32.9233 46.3684 32.9511C46.4128 32.9733 46.4545 33.015 46.4934 33.0761L47.9684 35.2095L49.535 33.0761C49.5795 33.015 49.6184 32.9733 49.6517 32.9511C49.6906 32.9233 49.7489 32.9095 49.8267 32.9095H50.7434C50.8711 32.9095 50.935 32.9761 50.935 33.1095C50.935 33.1761 50.9156 33.2317 50.8767 33.2761L48.7434 36.2178L50.9767 39.4095ZM55.4807 32.9095C55.7974 32.9095 56.0585 32.9622 56.2641 33.0678C56.4696 33.1678 56.6307 33.3095 56.7474 33.4928C56.8696 33.6706 56.953 33.8817 56.9974 34.1261C57.0474 34.365 57.0724 34.6233 57.0724 34.9011C57.0724 35.1789 57.0474 35.4428 56.9974 35.6928C56.953 35.9372 56.8696 36.1511 56.7474 36.3345C56.6307 36.5178 56.4696 36.665 56.2641 36.7761C56.0585 36.8817 55.7974 36.9345 55.4807 36.9345H52.6307V39.4928C52.6307 39.5706 52.6113 39.64 52.5724 39.7011C52.5391 39.7567 52.4807 39.7845 52.3974 39.7845H51.6307C51.5474 39.7845 51.4863 39.7567 51.4474 39.7011C51.4141 39.64 51.3974 39.5706 51.3974 39.4928V35.9928C51.3974 35.915 51.4141 35.8483 51.4474 35.7928C51.4863 35.7372 51.5474 35.7095 51.6307 35.7095H55.2641C55.3918 35.7095 55.4918 35.69 55.5641 35.6511C55.6418 35.6067 55.7002 35.5483 55.7391 35.4761C55.778 35.4039 55.803 35.3206 55.8141 35.2261C55.8307 35.1317 55.8391 35.0317 55.8391 34.9261C55.8391 34.8206 55.8307 34.7206 55.8141 34.6261C55.803 34.5317 55.778 34.4483 55.7391 34.3761C55.7002 34.3039 55.6418 34.2483 55.5641 34.2095C55.4918 34.165 55.3918 34.1428 55.2641 34.1428H51.6307C51.5474 34.1428 51.4863 34.115 51.4474 34.0595C51.4141 34.0039 51.3974 33.9372 51.3974 33.8595C51.3974 33.7983 51.3918 33.715 51.3807 33.6095C51.3752 33.5039 51.3752 33.3983 51.3807 33.2928C51.3863 33.1872 51.4057 33.0983 51.4391 33.0261C51.478 32.9483 51.5418 32.9095 51.6307 32.9095H55.4807ZM62.585 32.9095C62.6184 32.9095 62.6656 32.9261 62.7267 32.9595C62.7878 32.9928 62.8184 33.0733 62.8184 33.2011V33.8511C62.8184 33.9789 62.7878 34.0595 62.7267 34.0928C62.6656 34.1261 62.6184 34.1428 62.585 34.1428H57.7934C57.76 34.1428 57.7128 34.1289 57.6517 34.1011C57.5961 34.0678 57.5684 33.9872 57.5684 33.8595V33.2095C57.5684 33.0761 57.5961 32.9928 57.6517 32.9595C57.7128 32.9261 57.76 32.9095 57.7934 32.9095H62.585ZM58.8184 37.7845C58.8184 38.0678 58.8906 38.265 59.035 38.3761C59.185 38.4872 59.3878 38.5428 59.6434 38.5428H62.5767C62.6656 38.5428 62.7267 38.5706 62.76 38.6261C62.7989 38.6817 62.8184 38.7483 62.8184 38.8261V39.4928C62.8184 39.5706 62.7989 39.6372 62.76 39.6928C62.7267 39.7483 62.6656 39.7761 62.5767 39.7761H59.6184C59.2184 39.7761 58.885 39.7206 58.6184 39.6095C58.3572 39.4928 58.1489 39.3289 57.9934 39.1178C57.8378 38.9067 57.7267 38.6539 57.66 38.3595C57.5989 38.0595 57.5684 37.7261 57.5684 37.3595V36.2595C57.5684 36.1928 57.5795 36.1261 57.6017 36.0595C57.6239 35.9872 57.66 35.9261 57.71 35.8761C57.7656 35.8206 57.835 35.7761 57.9184 35.7428C58.0072 35.7095 58.1156 35.6928 58.2434 35.6928H62.5434C62.6267 35.6928 62.685 35.7206 62.7184 35.7761C62.7572 35.8317 62.7767 35.8983 62.7767 35.9761V36.6345C62.7767 36.7122 62.7572 36.7817 62.7184 36.8428C62.685 36.8983 62.6267 36.9261 62.5434 36.9261H58.8184V37.7845ZM67.6991 36.9178C67.7324 36.9678 67.7908 37.065 67.8741 37.2095C67.9574 37.3483 68.0546 37.5122 68.1658 37.7011C68.2769 37.8845 68.3908 38.0789 68.5074 38.2845C68.6296 38.4845 68.7408 38.6761 68.8408 38.8595C68.9463 39.0372 69.0296 39.19 69.0908 39.3178C69.1574 39.44 69.1908 39.5178 69.1908 39.5511C69.1908 39.6122 69.1769 39.665 69.1491 39.7095C69.1213 39.7539 69.0713 39.7761 68.9991 39.7761H68.0824C68.0158 39.7761 67.963 39.765 67.9241 39.7428C67.8852 39.715 67.8491 39.6706 67.8158 39.6095L66.3074 36.9428H64.5491V39.4845C64.5491 39.5622 64.5296 39.6317 64.4908 39.6928C64.4574 39.7483 64.3991 39.7761 64.3158 39.7761H63.5574C63.4741 39.7761 63.413 39.7483 63.3741 39.6928C63.3352 39.6317 63.3158 39.5622 63.3158 39.4845V35.9928C63.3158 35.915 63.3324 35.8483 63.3658 35.7928C63.4046 35.7372 63.4685 35.7095 63.5574 35.7095H67.1824C67.3102 35.7095 67.4102 35.69 67.4824 35.6511C67.5602 35.6067 67.6185 35.5483 67.6574 35.4761C67.6963 35.4039 67.7213 35.3206 67.7324 35.2261C67.7491 35.1317 67.7574 35.0317 67.7574 34.9261C67.7574 34.8206 67.7491 34.7206 67.7324 34.6261C67.7213 34.5317 67.6963 34.4483 67.6574 34.3761C67.6185 34.3039 67.5602 34.2483 67.4824 34.2095C67.4102 34.165 67.3102 34.1428 67.1824 34.1428H63.5574C63.4685 34.1428 63.4046 34.115 63.3658 34.0595C63.3324 34.0039 63.3158 33.9372 63.3158 33.8595V33.2011C63.3158 33.1233 63.3324 33.0567 63.3658 33.0011C63.4046 32.94 63.4685 32.9095 63.5574 32.9095H67.3991C67.7158 32.9095 67.9769 32.9622 68.1824 33.0678C68.388 33.1733 68.5491 33.3178 68.6658 33.5011C68.788 33.6845 68.8741 33.8983 68.9241 34.1428C68.9741 34.3872 68.9991 34.6483 68.9991 34.9261C68.9991 35.1595 68.9796 35.39 68.9408 35.6178C68.9074 35.84 68.8408 36.0428 68.7408 36.2261C68.6463 36.4039 68.5158 36.5567 68.3491 36.6845C68.1824 36.8067 67.9658 36.8845 67.6991 36.9178ZM75.1965 32.9095C75.2354 32.9095 75.2854 32.9261 75.3465 32.9595C75.4076 32.9872 75.4382 33.065 75.4382 33.1928V33.8428C75.4382 33.9095 75.427 33.965 75.4048 34.0095C75.3882 34.0483 75.3659 34.0789 75.3382 34.1011C75.3159 34.1178 75.2909 34.1289 75.2632 34.1345C75.2354 34.14 75.2132 34.1428 75.1965 34.1428H73.0548V39.4928C73.0548 39.6206 73.0243 39.7011 72.9632 39.7345C72.9076 39.7622 72.8604 39.7761 72.8215 39.7761H72.0548C72.0215 39.7761 71.9743 39.7622 71.9132 39.7345C71.852 39.7011 71.8215 39.6206 71.8215 39.4928V34.1428H69.6798C69.6632 34.1428 69.6409 34.14 69.6132 34.1345C69.5854 34.1289 69.5576 34.1178 69.5298 34.1011C69.5076 34.0789 69.4854 34.0483 69.4632 34.0095C69.4465 33.965 69.4382 33.9095 69.4382 33.8428V33.1928C69.4382 33.065 69.4687 32.9872 69.5298 32.9595C69.5909 32.9261 69.6409 32.9095 69.6798 32.9095H75.1965ZM77.1427 35.4261C77.1427 35.5039 77.1649 35.565 77.2094 35.6095C77.2594 35.6539 77.3149 35.6761 77.376 35.6761H79.876C80.1316 35.6761 80.3427 35.7261 80.5094 35.8261C80.6816 35.9206 80.8177 36.0483 80.9177 36.2095C81.0177 36.3706 81.0872 36.5567 81.126 36.7678C81.1705 36.9733 81.1927 37.1845 81.1927 37.4011V38.1345C81.1927 38.3511 81.1677 38.5595 81.1177 38.7595C81.0733 38.9595 80.9983 39.1345 80.8927 39.2845C80.7872 39.4345 80.6483 39.5539 80.476 39.6428C80.3094 39.7317 80.1038 39.7761 79.8594 39.7761H76.101C76.0122 39.7761 75.9483 39.7483 75.9094 39.6928C75.876 39.6372 75.8594 39.5706 75.8594 39.4928V38.8261C75.8594 38.7483 75.876 38.6817 75.9094 38.6261C75.9483 38.5706 76.0122 38.5428 76.101 38.5428H79.6594C79.7927 38.5428 79.876 38.4956 79.9094 38.4011C79.9427 38.3011 79.9594 38.1956 79.9594 38.0845V37.3678C79.9594 37.2622 79.9427 37.1595 79.9094 37.0595C79.876 36.9595 79.7955 36.9095 79.6677 36.9095H77.1677C76.7066 36.9095 76.3733 36.7789 76.1677 36.5178C75.9677 36.2567 75.8677 35.8928 75.8677 35.4261V34.3511C75.8677 34.1845 75.8872 34.015 75.926 33.8428C75.9649 33.6706 76.0316 33.5178 76.126 33.3845C76.226 33.2456 76.3594 33.1317 76.526 33.0428C76.6983 32.9539 76.9177 32.9095 77.1844 32.9095H80.776C80.8594 32.9095 80.9177 32.9372 80.951 32.9928C80.9899 33.0483 81.0094 33.115 81.0094 33.1928V33.8595C81.0094 33.9372 80.9899 34.0039 80.951 34.0595C80.9177 34.115 80.8594 34.1428 80.776 34.1428H77.3844C77.3288 34.1428 77.2733 34.1622 77.2177 34.2011C77.1677 34.24 77.1427 34.29 77.1427 34.3511V35.4261Z" fill="#222222"/>
<path d="M3.4543 23C2.8623 23 2.5663 22.704 2.5663 22.112V7.88C2.5663 7.288 2.8623 6.992 3.4543 6.992H9.0703C10.5023 6.992 11.5943 7.372 12.3463 8.132C13.0983 8.884 13.4743 9.976 13.4743 11.408V12.128C13.4743 13.56 13.0983 14.652 12.3463 15.404C11.5943 16.156 10.5023 16.532 9.0703 16.532H4.3303V22.112C4.3303 22.704 4.0383 23 3.4543 23ZM4.3303 14.768H9.0703C10.0143 14.768 10.6903 14.564 11.0983 14.156C11.5063 13.748 11.7103 13.072 11.7103 12.128V11.408C11.7103 10.464 11.5063 9.788 11.0983 9.38C10.6903 8.964 10.0143 8.756 9.0703 8.756H4.3303V14.768ZM20.4872 23C19.1752 23 18.2032 22.684 17.5712 22.052C16.9392 21.42 16.6232 20.448 16.6232 19.136C16.6232 17.824 16.9352 16.852 17.5592 16.22C18.1912 15.588 19.1672 15.272 20.4872 15.272H25.6832C25.6512 14.36 25.4272 13.732 25.0112 13.388C24.5952 13.044 23.8872 12.872 22.8872 12.872H21.4952C20.6232 12.872 19.9752 12.944 19.5512 13.088C19.1352 13.232 18.8552 13.484 18.7112 13.844C18.5992 14.132 18.4752 14.336 18.3392 14.456C18.2112 14.568 18.0112 14.624 17.7392 14.624C17.4432 14.624 17.2112 14.544 17.0432 14.384C16.8832 14.216 16.8352 13.996 16.8992 13.724C17.0912 12.82 17.5632 12.16 18.3152 11.744C19.0672 11.32 20.1272 11.108 21.4952 11.108H22.8872C24.4472 11.108 25.5992 11.48 26.3432 12.224C27.0872 12.968 27.4592 14.12 27.4592 15.68V22.112C27.4592 22.704 27.1672 23 26.5832 23C25.9912 23 25.6952 22.704 25.6952 22.112V21.356C24.8712 22.452 23.5832 23 21.8312 23H20.4872ZM20.4872 21.236H21.8312C22.4792 21.236 23.0752 21.172 23.6192 21.044C24.1632 20.916 24.6192 20.692 24.9872 20.372C25.3552 20.052 25.5912 19.604 25.6952 19.028V17.036H20.4872C19.6632 17.036 19.1072 17.184 18.8192 17.48C18.5312 17.768 18.3872 18.32 18.3872 19.136C18.3872 19.96 18.5312 20.516 18.8192 20.804C19.1072 21.092 19.6632 21.236 20.4872 21.236ZM36.1427 23C34.5827 23 33.4267 22.628 32.6747 21.884C31.9307 21.132 31.5587 19.976 31.5587 18.416V15.68C31.5587 14.12 31.9307 12.968 32.6747 12.224C33.4267 11.48 34.5827 11.108 36.1427 11.108H40.9187V7.064C40.9187 6.48 41.2147 6.188 41.8067 6.188C42.3907 6.188 42.6827 6.48 42.6827 7.064V22.112C42.6827 22.704 42.3907 23 41.8067 23C41.2147 23 40.9187 22.704 40.9187 22.112V21.656C40.5507 22.096 40.0547 22.432 39.4307 22.664C38.8067 22.888 38.0147 23 37.0547 23H36.1427ZM36.1427 21.236H37.0547C38.1747 21.236 39.0987 21.08 39.8267 20.768C40.5547 20.456 40.9187 19.98 40.9187 19.34V12.872H36.1427C35.0627 12.872 34.3227 13.076 33.9227 13.484C33.5227 13.884 33.3227 14.616 33.3227 15.68V18.416C33.3227 19.496 33.5227 20.236 33.9227 20.636C34.3307 21.036 35.0707 21.236 36.1427 21.236ZM48.557 17.768V18.44C48.557 19.504 48.757 20.236 49.157 20.636C49.557 21.036 50.297 21.236 51.377 21.236H53.345C54.225 21.236 54.869 21.144 55.277 20.96C55.693 20.768 55.961 20.436 56.081 19.964C56.145 19.7 56.245 19.496 56.381 19.352C56.525 19.208 56.737 19.136 57.017 19.136C57.313 19.136 57.537 19.216 57.689 19.376C57.841 19.528 57.893 19.752 57.845 20.048C57.693 21.048 57.241 21.792 56.489 22.28C55.745 22.76 54.697 23 53.345 23H51.377C49.817 23 48.661 22.628 47.909 21.884C47.165 21.14 46.793 19.992 46.793 18.44V15.68C46.793 14.096 47.165 12.936 47.909 12.2C48.661 11.456 49.817 11.092 51.377 11.108H53.345C54.905 11.108 56.057 11.48 56.801 12.224C57.545 12.96 57.917 14.112 57.917 15.68V16.88C57.917 17.472 57.625 17.768 57.041 17.768H48.557ZM51.377 12.872C50.297 12.856 49.557 13.048 49.157 13.448C48.757 13.848 48.557 14.592 48.557 15.68V16.004H56.153V15.68C56.153 14.6 55.953 13.864 55.553 13.472C55.161 13.072 54.425 12.872 53.345 12.872H51.377ZM65.7542 23C64.5622 23 63.6782 22.712 63.1022 22.136C62.5262 21.552 62.2382 20.664 62.2382 19.472V7.064C62.2382 6.48 62.5342 6.188 63.1262 6.188C63.7102 6.188 64.0022 6.48 64.0022 7.064V19.472C64.0022 20.168 64.1182 20.636 64.3502 20.876C64.5902 21.116 65.0582 21.236 65.7542 21.236C66.3542 21.236 66.6542 21.528 66.6542 22.112C66.6702 22.704 66.3702 23 65.7542 23Z" fill="#0D3F5C"/>
</svg>
